<?xml version="1.0" encoding="UTF-8"?>
<svg version="1.1" xmlns="http://www.w3.org/2000/svg" width="282" height="390">
<path d="M0 0 C5 5 5 5 6 8 C6.66 8 7.32 8 8 8 C8.33 8.99 8.66 9.98 9 11 C9.9861238 12.01368627 10.98985994 13.01024394 12 14 C13.64693263 16.09076702 15.27038132 18.18987379 16.875 20.3125 C17.72530946 21.43454444 18.57686933 22.5556424 19.4296875 23.67578125 C20.05762207 24.50070068 20.05762207 24.50070068 20.69824219 25.34228516 C22.02745978 27.03496848 23.41541711 28.66283467 24.8203125 30.29296875 C27 33 27 33 27 35 C27.66 35 28.32 35 29 35 C29.495 36.98 29.495 36.98 30 39 C30.66 39 31.32 39 32 39 C34.30852602 41.61632948 36.14915197 44.2501904 37.9375 47.25 C39.70273733 50.1595578 39.70273733 50.1595578 42.375 50.75 C43.24125 50.8325 44.1075 50.915 45 51 C47.00744615 51.64389782 49.00945124 52.30562253 51 53 C51.495 52.01 51.495 52.01 52 51 C52.66985428 51.00666183 53.33970856 51.01332367 54.02986145 51.02018738 C60.98869029 51.0864514 67.94742981 51.13176348 74.90649414 51.16479492 C77.50516397 51.17990063 80.10380823 51.20038634 82.70239258 51.22631836 C86.43316958 51.26262243 90.16361013 51.27970858 93.89453125 51.29296875 C95.64308159 51.31619453 95.64308159 51.31619453 97.42695618 51.33988953 C98.50785019 51.34011612 99.5887442 51.34034271 100.70239258 51.34057617 C102.13135612 51.35056892 102.13135612 51.35056892 103.58918762 51.36076355 C106.43626743 50.93471521 107.15058138 50.11358077 109 48 C109.66 48 110.32 48 111 48 C111.28875 47.236875 111.5775 46.47375 111.875 45.6875 C113 43 113 43 115 40 C115.66 40 116.32 40 117 40 C117.3403125 38.948125 117.3403125 38.948125 117.6875 37.875 C118.97674171 35.05094672 120.52461243 33.0119019 122.56640625 30.69140625 C124.76581696 28.09646119 126.70007526 25.31176732 128.66796875 22.5390625 C129.10753906 22.03117187 129.54710937 21.52328125 130 21 C130.66 21 131.32 21 132 21 C132.433125 19.8553125 132.433125 19.8553125 132.875 18.6875 C134 16 134 16 136 13 C136.66 13 137.32 13 138 13 C138.3403125 11.948125 138.3403125 11.948125 138.6875 10.875 C140.31686529 7.30591412 142.43177069 4.96334151 145 2 C145.33 1.34 145.66 0.68 146 0 C146.66 0 147.32 0 148 0 C148.33 27.06 148.66 54.12 149 82 C149.33 82 149.66 82 150 82 C150.07347656 83.7015625 150.07347656 83.7015625 150.1484375 85.4375 C150.2235414 86.95835398 150.29908584 88.47918625 150.375 90 C150.42140625 91.11568359 150.42140625 91.11568359 150.46875 92.25390625 C150.73753793 97.40567483 151.61063884 102.02992756 153 107 C153.66 107 154.32 107 155 107 C158 112.75 158 112.75 158 115 C158.99 115.33 159.98 115.66 161 116 C162.1328125 117.7421875 162.1328125 117.7421875 163.125 119.875 C163.62386719 120.92300781 163.62386719 120.92300781 164.1328125 121.9921875 C165 124 165 124 166 127 C165.01 127.33 164.02 127.66 163 128 C162.67 128.66 162.34 129.32 162 130 C156.57692308 133 156.57692308 133 154 133 C154 133.66 154 134.32 154 135 C148.25 138 148.25 138 146 138 C145.67 138.99 145.34 139.98 145 141 C144.01 141 143.02 141 142 141 C142 141.66 142 142.32 142 143 C140.33204692 144.12482957 138.61324805 145.1746808 136.875 146.1875 C132.59080263 148.83024244 129.52999219 151.29108663 126.4609375 155.23828125 C122.39301041 160.14372274 117.00063892 164.09325084 112 168 C112.33 164.7 112.66 161.4 113 158 C113.99 158 114.98 158 116 158 C116.33 155.36 116.66 152.72 117 150 C117.66 150 118.32 150 119 150 C119.33 148.68 119.66 147.36 120 146 C120.66 146 121.32 146 122 146 C122 145.01 122 144.02 122 143 C122.66 143 123.32 143 124 143 C124.2475 142.05125 124.495 141.1025 124.75 140.125 C126 137 126 137 128.0625 135.8125 C129.0215625 135.4103125 129.0215625 135.4103125 130 135 C130.33 134.01 130.66 133.02 131 132 C131.66 132 132.32 132 133 132 C133 131.34 133 130.68 133 130 C135.20469728 127.79530272 137.55414681 125.93393043 140 124 C140.886875 123.2575 141.77375 122.515 142.6875 121.75 C145 120 145 120 147 120 C145.53345206 112.37395069 140.57774314 104.35756907 135 99 C131.48184851 94.89548993 128.14871277 90.66330337 124.84765625 86.3828125 C123.57611542 84.74298183 122.29144745 83.11327341 120.99609375 81.4921875 C120.03896484 80.28949219 120.03896484 80.28949219 119.0625 79.0625 C118.47597656 78.33160156 117.88945312 77.60070312 117.28515625 76.84765625 C116 75 116 75 116 73 C115.0409375 72.62875 115.0409375 72.62875 114.0625 72.25 C112 71 112 71 111.37109375 68.921875 C111.18740234 67.97054687 111.18740234 67.97054687 111 67 C102.05307295 65.37520184 93.45185346 64.71375226 84.3671875 64.76953125 C83.12752228 64.76998947 81.88785706 64.77044769 80.61062622 64.7709198 C78.01742584 64.77391681 75.42422684 64.78172539 72.83105469 64.79418945 C68.85078536 64.81261208 64.87093258 64.81469762 60.890625 64.81445312 C58.36197715 64.81936318 55.83333087 64.82518925 53.3046875 64.83203125 C52.11414764 64.83314407 50.92360779 64.8342569 49.69699097 64.83540344 C48.04849655 64.84497322 48.04849655 64.84497322 46.36669922 64.85473633 C45.39997284 64.85854813 44.43324646 64.86235992 43.43722534 64.86628723 C40.8596838 64.90022554 40.8596838 64.90022554 38 66 C37.26676204 68.01508358 37.26676204 68.01508358 37 70 C36.34 70 35.68 70 35 70 C34.731875 70.56332031 34.46375 71.12664062 34.1875 71.70703125 C32.92530448 74.14423115 31.51350774 76.39831955 30 78.6875 C29.484375 79.47511719 28.96875 80.26273437 28.4375 81.07421875 C27 83 27 83 25 84 C24.505 85.485 24.505 85.485 24 87 C23.34 87 22.68 87 22 87 C21.7525 87.515625 21.505 88.03125 21.25 88.5625 C18.2731395 94.36737797 15.61212403 98.38787597 11 103 C9.62817019 105.10504919 8.35324059 107.24070632 7.11328125 109.42578125 C6.74589844 109.94527344 6.37851563 110.46476562 6 111 C5.34 111 4.68 111 4 111 C2.76078698 113.97411124 1.69941596 116.85262818 1 120 C2.32 120.66 3.64 121.32 5 122 C5 122.66 5 123.32 5 124 C6.11375 124.0928125 6.11375 124.0928125 7.25 124.1875 C10.89730873 125.26511394 11.72116398 126.98389351 14 130 C15.16785201 131.02287728 16.35691253 132.02188186 17.5625 133 C20.45573444 135.39971897 22.19968843 137.66942359 24 141 C24.495 141.474375 24.99 141.94875 25.5 142.4375 C27.98656856 145.02767558 30 148.3559973 30 152 C30.66 152 31.32 152 32 152 C32.50512244 153.60256108 33.00391627 155.20711792 33.5 156.8125 C33.7784375 157.70582031 34.056875 158.59914062 34.34375 159.51953125 C35 162 35 162 35 165 C35.66 165.33 36.32 165.66 37 166 C36.34 166.66 35.68 167.32 35 168 C31.15216516 164.93922229 27.85267377 162.05957421 25 158 C25 157.34 25 156.68 25 156 C24.43796875 155.76023438 23.8759375 155.52046875 23.296875 155.2734375 C20.51868639 153.73314926 18.54207208 151.82217737 16.25 149.625 C12.58426822 146.25079917 9.28597534 143.83250221 4.74609375 141.83203125 C2.18507751 140.61168123 0.16934779 138.80778983 -2 137 C-3.31138904 136.29114106 -4.63777017 135.60543548 -6 135 C-6 134.34 -6 133.68 -6 133 C-7.093125 132.690625 -8.18625 132.38125 -9.3125 132.0625 C-11.55407994 131.41662103 -13.7869351 130.7376883 -16 130 C-16 129.34 -16 128.68 -16 128 C-16.66 127.67 -17.32 127.34 -18 127 C-17.01 124.36 -16.02 121.72 -15 119 C-14.01 119 -13.02 119 -12 119 C-11.87625 118.4225 -11.7525 117.845 -11.625 117.25 C-10.99351176 114.97664233 -10.11141809 113.0746471 -9 111 C-8.34 111 -7.68 111 -7 111 C-6.566875 109.3603125 -6.566875 109.3603125 -6.125 107.6875 C-5 104 -5 104 -3 101 C-2.60986284 99.0103005 -2.26797351 97.00980131 -2 95 C-1.67 95 -1.34 95 -1 95 C-0.67 63.65 -0.34 32.3 0 0 Z M10 31 C8.70459413 35.95007129 8.85602811 40.86036485 8.8671875 45.9375 C8.86623077 46.89519287 8.86527405 47.85288574 8.86428833 48.83959961 C8.8636092 50.86018947 8.86544483 52.88078154 8.86962891 54.90136719 C8.8749809 57.98898228 8.86967484 61.07645191 8.86328125 64.1640625 C8.86394208 66.13020865 8.86522334 68.09635472 8.8671875 70.0625 C8.86516327 70.98345459 8.86313904 71.90440918 8.86105347 72.85327148 C8.87628079 77.02896219 8.93486874 80.92986584 10 85 C10.33 85 10.66 85 11 85 C11 83.35 11 81.7 11 80 C12.485 79.505 12.485 79.505 14 79 C14.66 78.34 15.32 77.68 16 77 C16.7425 76.278125 17.485 75.55625 18.25 74.8125 C20.31840594 72.69708483 22.34139307 70.57909829 24.3125 68.375 C24.82425781 67.80523437 25.33601563 67.23546875 25.86328125 66.6484375 C27.28384368 64.92210581 27.28384368 64.92210581 27 62 C27.66 62 28.32 62 29 62 C29 61.34 29 60.68 29 60 C29.99 59.67 30.98 59.34 32 59 C30.22409413 54.80718082 27.37487885 51.46855715 24.5625 47.9375 C24.07201172 47.31294922 23.58152344 46.68839844 23.07617188 46.04492188 C20.39468357 42.62445801 20.39468357 42.62445801 17.39819336 39.48657227 C16 38 16 38 15 35 C14.34 35 13.68 35 13 35 C12.34 33.68 11.68 32.36 11 31 C10.67 31 10.34 31 10 31 Z M138 30 C137.01 31.485 137.01 31.485 136 33 C134.62060129 34.55638877 133.22240281 36.09618972 131.8125 37.625 C124.32910658 45.46127682 124.32910658 45.46127682 118.93359375 54.69921875 C118 57 118 57 116 58 C116.66 58 117.32 58 118 58 C118.33 59.32 118.66 60.64 119 62 C119.66 62 120.32 62 121 62 C121 62.66 121 63.32 121 64 C121.66 64 122.32 64 123 64 C123.33 65.32 123.66 66.64 124 68 C124.66 68 125.32 68 126 68 C126 68.66 126 69.32 126 70 C126.804375 70.804375 127.60875 71.60875 128.4375 72.4375 C131 75 131 75 132 78 C132.825 78.268125 133.65 78.53625 134.5 78.8125 C135.325 79.204375 136.15 79.59625 137 80 C137.8125 83.125 137.8125 83.125 138 86 C138.33 86 138.66 86 139 86 C139 67.52 139 49.04 139 30 C138.67 30 138.34 30 138 30 Z M148 118 C149 120 149 120 149 120 Z " fill="#0D0D0D" transform="translate(71,64)"/>
<path d="M0 0 C3.58305992 -0.11627503 7.16563417 -0.1872736 10.75 -0.25 C11.76578125 -0.28351563 12.7815625 -0.31703125 13.828125 -0.3515625 C21.35573934 -0.45061006 21.35573934 -0.45061006 24.703125 1.890625 C26 4 26 4 26 6 C26.66 6.33 27.32 6.66 28 7 C31.43230605 11.11876726 32.12565303 14.25157768 32.09765625 19.54296875 C32.09515869 20.51000732 32.09266113 21.4770459 32.09008789 22.47338867 C32.08098389 23.69904541 32.07187988 24.92470215 32.0625 26.1875 C32.041875 30.085625 32.02125 33.98375 32 38 C40.25 38 48.5 38 57 38 C57.17019833 29.99803217 57.17019833 29.99803217 57.29785156 21.99536133 C57.3284668 20.9927124 57.35908203 19.99006348 57.390625 18.95703125 C57.41157227 17.93585205 57.43251953 16.91467285 57.45410156 15.86254883 C58.12912861 12.32288329 59.62106059 10.65177725 62 8 C62.33 7.319375 62.66 6.63875 63 5.9375 C64.32465827 3.3709746 65.7805996 1.85568914 68 0 C70.56542969 -0.45410156 70.56542969 -0.45410156 73.421875 -0.390625 C74.95908203 -0.37128906 74.95908203 -0.37128906 76.52734375 -0.3515625 C78.12255859 -0.30128906 78.12255859 -0.30128906 79.75 -0.25 C81.36841797 -0.22292969 81.36841797 -0.22292969 83.01953125 -0.1953125 C85.68058788 -0.14821415 88.33984254 -0.082456 91 0 C89.63760782 2.84223197 88.44766831 4.96027641 86 7 C85.34 7 84.68 7 84 7 C83.62875 7.86625 83.62875 7.86625 83.25 8.75 C80.44746152 13.79456927 77.09700992 15.59931174 71.8046875 17.38671875 C69.93127656 17.97784302 69.93127656 17.97784302 68 19 C68.06900513 20.01368652 68.06900513 20.01368652 68.1394043 21.04785156 C68.33876776 24.11441457 68.51338465 27.18190426 68.6875 30.25 C68.76033203 31.31347656 68.83316406 32.37695312 68.90820312 33.47265625 C68.96298828 34.49746094 69.01777344 35.52226562 69.07421875 36.578125 C69.13182373 37.52075195 69.18942871 38.46337891 69.2487793 39.43457031 C68.75489349 44.52755569 64.80296955 47.18891696 61.125 50.375 C57.3561152 53.70858963 54.06402012 57.01677385 51 61 C55.77291563 65.25838688 55.77291563 65.25838688 61.9375 65.875 C67.35339842 64.07675248 70.68734821 59.42788369 74 55 C74.495 54.01 74.495 54.01 75 53 C76.32 53 77.64 53 79 53 C78.85892253 54.45880109 78.71197585 55.91703551 78.5625 57.375 C78.44068359 58.59316406 78.44068359 58.59316406 78.31640625 59.8359375 C78 62 78 62 77 64 C76.289928 66.54268429 75.86923794 68.93167971 75.5 71.5625 C73.24376867 80.75965671 64.05546065 88.1423667 57.4375 94.4375 C54.86883248 96.98750233 54.86883248 96.98750233 52.8125 100.3125 C52.214375 101.199375 51.61625 102.08625 51 103 C50.34 103 49.68 103 49 103 C49 103.66 49 104.32 49 105 C48.34 105 47.68 105 47 105 C47 105.66 47 106.32 47 107 C45.125 106.75 45.125 106.75 43 106 C41.75 103.9375 41.75 103.9375 41 102 C40.34 102 39.68 102 39 102 C39 101.34 39 100.68 39 100 C38.34 100 37.68 100 37 100 C35.44921875 98.42578125 35.44921875 98.42578125 33.6875 96.3125 C31.64083831 93.90142236 29.6142631 91.6142631 27.375 89.375 C24.71348726 86.71348726 22.38995756 83.90670513 20 81 C19.34 80.34 18.68 79.68 18 79 C17.34 78.34 16.68 77.68 16 77 C16 75 16 73 16 71 C15.34 70.01 14.68 69.02 14 68 C13.62109375 65.87890625 13.62109375 65.87890625 13.4375 63.5625 C13.24353967 61.22310091 13.02927966 59.10722949 12.41015625 56.83984375 C12 55 12 55 13 53 C15 53 15 53 17.125 54.875 C19 57 19 57 19 59 C20.485 59.495 20.485 59.495 22 60 C22 60.66 22 61.32 22 62 C22.66 62 23.32 62 24 62 C24.66 63.65 25.32 65.3 26 67 C28.31 67 30.62 67 33 67 C33 66.34 33 65.68 33 65 C33.804375 64.54625 34.60875 64.0925 35.4375 63.625 C38.15849084 62.28585773 38.15849084 62.28585773 38.66015625 59.8984375 C38.77230469 59.27195313 38.88445312 58.64546875 39 58 C37.78763672 56.89591797 37.78763672 56.89591797 36.55078125 55.76953125 C35.47129779 54.78391591 34.39187388 53.79823535 33.3125 52.8125 C32.78205078 52.32974609 32.25160156 51.84699219 31.70507812 51.34960938 C30.64060156 50.37656024 29.58466628 49.39408724 28.53735352 48.40258789 C27.13118895 47.11968882 25.62325308 45.95069559 24.109375 44.796875 C20.89419773 40.5337881 21.60857087 36.6048706 21.9375 31.4375 C22.64364244 24.54776762 22.64364244 24.54776762 20.17578125 18.42578125 C17.85512176 16.90506183 15.62984037 15.87661346 13 15 C13 14.34 13 13.68 13 13 C12.41734375 12.731875 11.8346875 12.46375 11.234375 12.1875 C8.97213399 10.98519009 7.19423682 9.66174087 5.25 8 C4.63640625 7.484375 4.0228125 6.96875 3.390625 6.4375 C2 5 2 5 2 3 C1.01 2.67 0.02 2.34 -1 2 C-0.67 1.34 -0.34 0.68 0 0 Z M40 59 C41 61 41 61 41 61 Z M46 71 C46 71.66 46 72.32 46 73 C44.68 72.67 43.36 72.34 42 72 C42 72.66 42 73.32 42 74 C41.071875 74.185625 41.071875 74.185625 40.125 74.375 C37.80879168 74.87197356 37.80879168 74.87197356 36 77 C35.34 77 34.68 77 34 77 C35.75722991 81.31320068 38.8062168 84.9031084 43 87 C45.22624593 86.6808377 45.22624593 86.6808377 47.625 86.0625 C48.44226563 85.86785156 49.25953125 85.67320312 50.1015625 85.47265625 C50.72804688 85.31667969 51.35453125 85.16070312 52 85 C52 84.34 52 83.68 52 83 C52.99 82.67 53.98 82.34 55 82 C55.33 80.35 55.66 78.7 56 77 C55.01 77 54.02 77 53 77 C53 76.34 53 75.68 53 75 C50.69 73.68 48.38 72.36 46 71 Z " fill="#0C0C0C" transform="translate(100,158)"/>
<path d="M0 0 C2.08218362 -0.10832169 4.16599129 -0.18573541 6.25 -0.25 C7.99023438 -0.31960938 7.99023438 -0.31960938 9.765625 -0.390625 C13 0 13 0 15.3515625 1.88671875 C16.90530709 3.87860459 17.96425813 5.70657156 19 8 C19.99 9.485 19.99 9.485 21 11 C24 15.73076923 24 15.73076923 24 18 C24.66 18 25.32 18 26 18 C27.32 20.31 28.64 22.62 30 25 C30.91525543 17.9067704 31.06062815 10.9577222 30.9375 3.80859375 C31 1 31 1 32 0 C36.29 0 40.58 0 45 0 C45 17.82 45 35.64 45 54 C33 53 33 53 30 51 C30 50.01 30 49.02 30 48 C29.34 48 28.68 48 28 48 C24 41.25 24 41.25 24 39 C23.34 39 22.68 39 22 39 C19 33.25 19 33.25 19 31 C16.88214887 29.88214887 16.88214887 29.88214887 14 29 C14 36.59 14 44.18 14 52 C11.37670316 53.31164842 9.36301375 53.13262846 6.4375 53.125 C5.44621094 53.12757813 4.45492187 53.13015625 3.43359375 53.1328125 C1 53 1 53 0 52 C-0.09340434 50.37325222 -0.11745171 48.74245949 -0.11352539 47.11303711 C-0.11344986 46.07203354 -0.11337433 45.03102997 -0.11329651 43.95848083 C-0.10813522 42.8262056 -0.10297394 41.69393036 -0.09765625 40.52734375 C-0.0962413 39.37456436 -0.09482635 38.22178497 -0.09336853 37.03407288 C-0.08775005 33.33518936 -0.07519442 29.63636536 -0.0625 25.9375 C-0.05748738 23.43684983 -0.05292406 20.93619871 -0.04882812 18.43554688 C-0.03777462 12.29034412 -0.02101852 6.14517631 0 0 Z M14 25 C15 27 15 27 15 27 Z " fill="#0D0D0D" transform="translate(147,294)"/>
<path d="M0 0 C2.75589777 0.01747927 5.38786676 0.13863271 8.125 0.375 C9.25615234 0.46007812 9.25615234 0.46007812 10.41015625 0.546875 C12.27418096 0.6884465 14.13721137 0.84299959 16 1 C15.6875 2.9375 15.6875 2.9375 15 5 C14.01 5.33 13.02 5.66 12 6 C11.26676204 8.01508358 11.26676204 8.01508358 11 10 C10.34 10 9.68 10 9 10 C8.71125 10.9075 8.4225 11.815 8.125 12.75 C5.88495575 19.22123894 5.88495575 19.22123894 3.4375 21.375 C1.13590919 23.97679831 0.93549061 25.51649309 1 29 C2.38390906 31.50622555 3.94011864 33.75350742 5.65234375 36.046875 C7 38 7 38 7 40 C7.66 40 8.32 40 9 40 C9 40.99 9 41.98 9 43 C9.66 43 10.32 43 11 43 C11.680625 44.3921875 11.680625 44.3921875 12.375 45.8125 C13.9421633 49.03921389 13.9421633 49.03921389 16 52 C14.88671875 53.51953125 14.88671875 53.51953125 13 55 C10.08203125 55.07421875 10.08203125 55.07421875 6.8125 54.6875 C5.72582031 54.56761719 4.63914063 54.44773437 3.51953125 54.32421875 C2.68808594 54.21722656 1.85664063 54.11023438 1 54 C0.34 52.35 -0.32 50.7 -1 49 C-1.66 49 -2.32 49 -3 49 C-6 43.25 -6 43.25 -6 41 C-7.485 40.505 -7.485 40.505 -9 40 C-9.433125 40.928125 -9.433125 40.928125 -9.875 41.875 C-11 44 -11 44 -13 46 C-13.33 46.99 -13.66 47.98 -14 49 C-16.2832981 52.63636364 -16.2832981 52.63636364 -19 54 C-23.69440226 54.43644103 -28.29899146 54.28625898 -33 54 C-32.31911019 51.08014819 -31.41898766 48.64877696 -30 46 C-29.34 46 -28.68 46 -28 46 C-27.71125 45.2575 -27.4225 44.515 -27.125 43.75 C-26.17697356 41.43260203 -25.15154089 39.22082885 -24 37 C-23.34 37 -22.68 37 -22 37 C-20.25150329 32.6960081 -18.6229639 28.35249409 -17 24 C-17.66 24 -18.32 24 -19 24 C-20.078125 22.56640625 -20.078125 22.56640625 -21.25 20.5625 C-23.64076335 16.55886347 -26.21109343 12.71746189 -28.86328125 8.8828125 C-30 7 -30 7 -30 5 C-30.66 5 -31.32 5 -32 5 C-32.33 4.01 -32.66 3.02 -33 2 C-32 1 -32 1 -28.83984375 0.90234375 C-26.90818359 0.91974609 -26.90818359 0.91974609 -24.9375 0.9375 C-23.64714844 0.94652344 -22.35679687 0.95554687 -21.02734375 0.96484375 C-20.02832031 0.97644531 -19.02929688 0.98804688 -18 1 C-17.67 1.99 -17.34 2.98 -17 4 C-16.34 4 -15.68 4 -15 4 C-13.98133771 5.65532623 -12.98189187 7.32260138 -12 9 C-11.34 9.33 -10.68 9.66 -10 10 C-8.875 12.0625 -8.875 12.0625 -8 14 C-7.59007812 13.15695312 -7.18015625 12.31390625 -6.7578125 11.4453125 C-6.21898437 10.34960938 -5.68015625 9.25390625 -5.125 8.125 C-4.59132812 7.03445313 -4.05765625 5.94390625 -3.5078125 4.8203125 C-2 2 -2 2 0 0 Z M-17 26 C-16 28 -16 28 -16 28 Z " fill="#0C0C0C" transform="translate(231,293)"/>
<path d="M0 0 C5.28 0 10.56 0 16 0 C16 0.66 16 1.32 16 2 C16.66 2 17.32 2 18 2 C18.99 4.97 19.98 7.94 21 11 C21.66 11 22.32 11 23 11 C23.99 12.98 24.98 14.96 26 17 C27.32 14.03 28.64 11.06 30 8 C30.66 8 31.32 8 32 8 C32.28875 6.865625 32.5775 5.73125 32.875 4.5625 C33.24625 3.386875 33.6175 2.21125 34 1 C37.06533164 -0.53266582 40.26754272 -0.10276471 43.625 -0.0625 C44.68460938 -0.05573242 44.68460938 -0.05573242 45.765625 -0.04882812 C47.51045275 -0.03703875 49.255237 -0.01910324 51 0 C50.34 1.98 49.68 3.96 49 6 C48.34 6 47.68 6 47 6 C46.814375 7.423125 46.814375 7.423125 46.625 8.875 C46 12 46 12 44 14 C43.34 14.33 42.68 14.66 42 15 C41.566875 16.3303125 41.566875 16.3303125 41.125 17.6875 C39.89731715 21.30234395 38.15621501 23.86368726 36 27 C32.6292189 32.35742503 32.63282203 36.75673476 32.8125 42.875 C32.82603516 43.75414062 32.83957031 44.63328125 32.85351562 45.5390625 C32.88863377 47.69297552 32.94243306 49.84657004 33 52 C28.15137072 53.78994659 25.10313531 54.10067624 20 53 C18.43830675 51.43830675 18.83662395 49.8717528 18.7890625 47.703125 C18.76070312 46.8265625 18.73234375 45.95 18.703125 45.046875 C18.65148346 43.19810785 18.60708483 41.34912266 18.5703125 39.5 C18.36460626 33.63737207 17.81775833 29.78154036 13.48046875 25.5 C11.54958744 23.54364532 10.53044396 21.45783286 9.3125 19 C8.65701172 17.700625 8.65701172 17.700625 7.98828125 16.375 C7 14 7 14 7 11 C6.34 10.67 5.68 10.34 5 10 C3.9935725 8.33720673 2.99414593 6.67016516 2 5 C0.41754725 3.24850835 0.41754725 3.24850835 -1 2 C-0.67 1.34 -0.34 0.68 0 0 Z " fill="#0D0D0D" transform="translate(91,294)"/>
<path d="M0 0 C4.62 0 9.24 0 14 0 C15.04827179 4.19308717 15.1264558 7.98688307 15.09765625 12.265625 C15.0962413 13.05902283 15.09482635 13.85242065 15.09336853 14.66986084 C15.08778415 17.19661272 15.07523454 19.72327504 15.0625 22.25 C15.05748298 23.96614455 15.05292043 25.68229049 15.04882812 27.3984375 C15.03867198 31.59902035 15.01909359 35.79941027 15 40 C22.26 40.33 29.52 40.66 37 41 C37 44.63 37 48.26 37 52 C36 53 36 53 32.58178711 53.11352539 C31.06363013 53.11327433 29.54546743 53.10771425 28.02734375 53.09765625 C27.32065552 53.09664917 26.61396729 53.09564209 25.88586426 53.09460449 C23.23639309 53.08935745 20.58694498 53.07539629 17.9375 53.0625 C12.018125 53.041875 6.09875 53.02125 0 53 C0 35.51 0 18.02 0 0 Z " fill="#0E0E0E" transform="translate(64,294)"/>
<path d="M0 0 C1.32 0.99 2.64 1.98 4 3 C3.67 4.32 3.34 5.64 3 7 C2.34 7 1.68 7 1 7 C0.67 7.66 0.34 8.32 0 9 C-5.42307692 12 -5.42307692 12 -8 12 C-8 12.66 -8 13.32 -8 14 C-13.75 17 -13.75 17 -16 17 C-16.495 18.485 -16.495 18.485 -17 20 C-17.99 20 -18.98 20 -20 20 C-20 20.66 -20 21.32 -20 22 C-21.66795308 23.12482957 -23.38675195 24.1746808 -25.125 25.1875 C-29.40919737 27.83024244 -32.47000781 30.29108663 -35.5390625 34.23828125 C-39.60698959 39.14372274 -44.99936108 43.09325084 -50 47 C-49.67 43.7 -49.34 40.4 -49 37 C-48.01 37 -47.02 37 -46 37 C-45.67 34.36 -45.34 31.72 -45 29 C-44.34 29 -43.68 29 -43 29 C-42.67 27.68 -42.34 26.36 -42 25 C-41.34 25 -40.68 25 -40 25 C-40 24.01 -40 23.02 -40 22 C-39.34 22 -38.68 22 -38 22 C-37.7525 21.05125 -37.505 20.1025 -37.25 19.125 C-36 16 -36 16 -33.9375 14.8125 C-33.298125 14.544375 -32.65875 14.27625 -32 14 C-31.67 13.01 -31.34 12.02 -31 11 C-30.34 11 -29.68 11 -29 11 C-29 10.34 -29 9.68 -29 9 C-25.6891507 5.6891507 -22.29718241 2.90985885 -18 1 C-18 2.65 -18 4.3 -18 6 C-18.82177734 6.36931641 -18.82177734 6.36931641 -19.66015625 6.74609375 C-29.11558873 11.81319529 -35.62580655 18.87741964 -39 29 C-39.515625 29.495 -40.03125 29.99 -40.5625 30.5 C-42.34595268 32.01472806 -42.34595268 32.01472806 -42 35 C-38.24980832 33.74993611 -37.42481772 32.06668123 -35 29 C-30.56756757 25 -30.56756757 25 -27 25 C-26.79246094 24.42765625 -26.58492187 23.8553125 -26.37109375 23.265625 C-24.48072088 20.14193195 -22.10415238 18.74089974 -19.0625 16.75 C-18.00160156 16.04359375 -16.94070312 15.3371875 -15.84765625 14.609375 C-13 13 -13 13 -10 13 C-10 12.34 -10 11.68 -10 11 C-6.7 9.35 -3.4 7.7 0 6 C-0.495 3.525 -0.495 3.525 -1 1 C-0.67 0.67 -0.34 0.34 0 0 Z " fill="#020202" transform="translate(233,185)"/>
<path d="M0 0 C0.89267578 0.01804688 1.78535156 0.03609375 2.70507812 0.0546875 C4.90863504 0.10182241 7.11002601 0.16759343 9.3125 0.25 C8.3225 0.745 8.3225 0.745 7.3125 1.25 C7.003125 2.3328125 7.003125 2.3328125 6.6875 3.4375 C4.21342042 8.49811732 -0.24730875 11.32106356 -5.4375 13.296875 C-7.84293083 14.02123769 -10.24161347 14.67862487 -12.6875 15.25 C-14.0075 13.93 -15.3275 12.61 -16.6875 11.25 C-13.85546875 6.171875 -13.85546875 6.171875 -12.6875 4.25 C-12.3471875 3.5178125 -12.006875 2.785625 -11.65625 2.03125 C-8.32359045 -0.9840134 -4.30815613 -0.16388012 0 0 Z " fill="#0F0F0F" transform="translate(177.6875,159.75)"/>
<path d="M0 0 C7.41864765 2.76380991 11.49251738 7.27180085 16.51953125 13.2421875 C17.46280633 14.3621711 18.41746456 15.47273451 19.38671875 16.5703125 C26 24.15671922 26 24.15671922 26 29 C26.66 29 27.32 29 28 29 C28.50512244 30.60256108 29.00391627 32.20711792 29.5 33.8125 C29.7784375 34.70582031 30.056875 35.59914062 30.34375 36.51953125 C31 39 31 39 31 42 C31.66 42.33 32.32 42.66 33 43 C32.34 43.66 31.68 44.32 31 45 C27.15216516 41.93922229 23.85267377 39.05957421 21 35 C21 34.34 21 33.68 21 33 C22.65 33.66 24.3 34.32 26 35 C25.38144369 33.3725363 24.75492695 31.74809644 24.125 30.125 C23.77695313 29.22007812 23.42890625 28.31515625 23.0703125 27.3828125 C21.71297792 24.36100923 19.86959885 22.8791404 17.4375 20.625 C14.95924925 17.95611457 14.81902046 17.27608183 14 14 C11.64587234 11.39585286 11.64587234 11.39585286 9 9 C8.2884375 8.195625 8.2884375 8.195625 7.5625 7.375 C5.29917769 5.38327636 2.71691898 4.26789552 0 3 C0 2.01 0 1.02 0 0 Z " fill="#020202" transform="translate(75,187)"/>
<path d="M0 0 C2 0 2 0 4.125 1.875 C6 4 6 4 6 6 C6.99 6.33 7.98 6.66 9 7 C9 7.66 9 8.32 9 9 C9.66 9 10.32 9 11 9 C11.66 10.65 12.32 12.3 13 14 C15.31 14 17.62 14 20 14 C20 13.34 20 12.68 20 12 C21.2065625 11.319375 21.2065625 11.319375 22.4375 10.625 C25.0962513 9.26075397 25.0962513 9.26075397 25.9375 7 C26.20376008 4.67685348 26.20376008 4.67685348 24 2 C26.46800047 3.15173355 28.04783565 4.04783565 30 6 C29.9375 7.875 29.9375 7.875 29 10 C24.66666667 14 24.66666667 14 22 14 C22 14.66 22 15.32 22 16 C18.04 16.33 14.08 16.66 10 17 C9.5978125 15.5459375 9.5978125 15.5459375 9.1875 14.0625 C8.795625 13.051875 8.40375 12.04125 8 11 C7.01 10.67 6.02 10.34 5 10 C4.34 11.98 3.68 13.96 3 16 C2.34 15.67 1.68 15.34 1 15 C0.62109375 13.07421875 0.62109375 13.07421875 0.4375 10.6875 C0.24452995 8.30491056 0.03846857 6.14139111 -0.58984375 3.83203125 C-1 2 -1 2 0 0 Z M27 6 C28 8 28 8 28 8 Z " fill="#030303" transform="translate(113,211)"/>
<path d="M0 0 C10.56378547 0.20206578 21.12314503 0.50318786 31.68301392 0.85165405 C31.68301392 1.18165405 31.68301392 1.51165405 31.68301392 1.85165405 C26.87075228 2.0255188 22.05824858 2.19146921 17.24551392 2.35165405 C16.52715363 2.37566284 15.80879333 2.39967163 15.06866455 2.42440796 C4.11348853 2.78360908 -6.82333601 2.94344138 -17.78549194 2.81454468 C-18.74076782 2.80616577 -19.6960437 2.79778687 -20.68026733 2.78915405 C-21.50824829 2.77755249 -22.33622925 2.76595093 -23.18930054 2.7539978 C-25.50670731 2.76356199 -25.50670731 2.76356199 -28.31698608 3.85165405 C-29.05022404 5.86673763 -29.05022404 5.86673763 -29.31698608 7.85165405 C-29.97698608 7.85165405 -30.63698608 7.85165405 -31.31698608 7.85165405 C-31.58511108 8.41497437 -31.85323608 8.97829468 -32.12948608 9.5586853 C-33.3916816 11.9958852 -34.80347835 14.2499736 -36.31698608 16.53915405 C-36.83261108 17.32677124 -37.34823608 18.11438843 -37.87948608 18.9258728 C-39.31698608 20.85165405 -39.31698608 20.85165405 -41.31698608 21.85165405 C-41.64698608 22.84165405 -41.97698608 23.83165405 -42.31698608 24.85165405 C-42.97698608 24.85165405 -43.63698608 24.85165405 -44.31698608 24.85165405 C-44.60573608 25.49102905 -44.89448608 26.13040405 -45.19198608 26.78915405 C-46.31698608 28.85165405 -46.31698608 28.85165405 -48.31698608 29.85165405 C-47.98698608 28.53165405 -47.65698608 27.21165405 -47.31698608 25.85165405 C-46.65698608 25.85165405 -45.99698608 25.85165405 -45.31698608 25.85165405 C-45.05015015 25.11173218 -44.78331421 24.3718103 -44.50839233 23.60946655 C-42.95686713 20.01806722 -40.81430782 17.39980002 -38.32479858 14.40634155 C-36.23389293 11.86383927 -36.23389293 11.86383927 -34.55917358 8.85946655 C-31.54312191 4.15833338 -29.18087412 1.33805906 -23.66464233 -0.10147095 C-15.8222905 -0.86721044 -7.86343342 -0.14993461 0 0 Z " fill="#000101" transform="translate(137.31698608398438,126.14834594726563)"/>
<path d="M0 0 C1 2 1 2 0.6875 4 C-0.23808027 6.69259716 -1.47902912 7.73951456 -4 9 C-4.433125 10.3303125 -4.433125 10.3303125 -4.875 11.6875 C-6.10268285 15.30234395 -7.84378499 17.86368726 -10 21 C-13.3707811 26.35742503 -13.36717797 30.75673476 -13.1875 36.875 C-13.17396484 37.75414062 -13.16042969 38.63328125 -13.14648438 39.5390625 C-13.11136623 41.69297552 -13.05756694 43.84657004 -13 46 C-17.84862928 47.78994659 -20.89686469 48.10067624 -26 47 C-27 46 -27 46 -27.09765625 44.15234375 C-27.06510417 42.1015625 -27.03255208 40.05078125 -27 38 C-25 40 -25 40 -24.875 43.125 C-24.91625 44.07375 -24.9575 45.0225 -25 46 C-23.906875 45.814375 -22.81375 45.62875 -21.6875 45.4375 C-18 45 -18 45 -15 46 C-15.04600342 45.37432129 -15.09200684 44.74864258 -15.1394043 44.10400391 C-15.33814836 41.27853024 -15.51310243 38.45207632 -15.6875 35.625 C-15.76033203 34.64015625 -15.83316406 33.6553125 -15.90820312 32.640625 C-15.96298828 31.69960938 -16.01777344 30.75859375 -16.07421875 29.7890625 C-16.16062622 28.48509521 -16.16062622 28.48509521 -16.2487793 27.15478516 C-16.16668213 26.44370605 -16.08458496 25.73262695 -16 25 C-15.01 24.34 -14.02 23.68 -13 23 C-11.75509306 20.40117474 -11.75509306 20.40117474 -10.6875 17.375 C-8.48431122 11.81361741 -5.77024852 7.58842562 -2 3 C-1.34 2.01 -0.68 1.02 0 0 Z " fill="#020202" transform="translate(137,300)"/>
<path d="M0 0 C5 5 5 5 6 8 C6.66 8 7.32 8 8 8 C8.33 8.99 8.66 9.98 9 11 C9.9861238 12.01368627 10.98985994 13.01024394 12 14 C13.64693263 16.09076702 15.27038132 18.18987379 16.875 20.3125 C17.72530946 21.43454444 18.57686933 22.5556424 19.4296875 23.67578125 C19.84831055 24.22572754 20.26693359 24.77567383 20.69824219 25.34228516 C22.02745978 27.03496848 23.41541711 28.66283467 24.8203125 30.29296875 C27 33 27 33 27 35 C27.66 35 28.32 35 29 35 C29.33 36.32 29.66 37.64 30 39 C29.34 39 28.68 39 28 39 C26.7109375 37.5390625 26.7109375 37.5390625 25.375 35.625 C24.92898437 34.99851563 24.48296875 34.37203125 24.0234375 33.7265625 C23 32 23 32 23 30 C22.01 29.67 21.02 29.34 20 29 C17 25.55555556 17 25.55555556 17 23 C16.34 23 15.68 23 15 23 C14.5978125 22.1028125 14.5978125 22.1028125 14.1875 21.1875 C13.13520089 19.00203449 13.13520089 19.00203449 11.59375 17.59375 C9.93950878 15.93950878 8.65028648 14.22878873 7.3125 12.3125 C6.87550781 11.68988281 6.43851562 11.06726563 5.98828125 10.42578125 C5.66214844 9.95527344 5.33601563 9.48476562 5 9 C4.01 9.33 3.02 9.66 2 10 C2 11.98 2 13.96 2 16 C1.34 16.33 0.68 16.66 0 17 C0 11.39 0 5.78 0 0 Z " fill="#030303" transform="translate(71,64)"/>
<path d="M0 0 C3.63 0 7.26 0 11 0 C11.9984797 3.99391882 12.12761524 7.53927856 12.09765625 11.609375 C12.0962413 12.33618469 12.09482635 13.06299438 12.09336853 13.81182861 C12.08778792 16.12459494 12.07523904 18.43726312 12.0625 20.75 C12.05748249 22.32161318 12.05292002 23.89322789 12.04882812 25.46484375 C12.03782485 29.30993343 12.02057361 33.1549501 12 37 C11.01 36.67 10.02 36.34 9 36 C8.80124492 32.6464024 8.61804783 29.29212319 8.4375 25.9375 C8.38142578 24.99455078 8.32535156 24.05160156 8.26757812 23.08007812 C7.99438957 17.85307046 8.14958115 13.15566429 9 8 C8.63112347 4.69285416 8.63112347 4.69285416 8 2 C7.05125 2.04125 6.1025 2.0825 5.125 2.125 C2 2 2 2 0 0 Z " fill="#020202" transform="translate(67,294)"/>
<path d="M0 0 C18.15 0 36.3 0 55 0 C54.67 0.99 54.34 1.98 54 3 C53.07058594 2.91621094 52.14117187 2.83242187 51.18359375 2.74609375 C49.94738281 2.64425781 48.71117187 2.54242188 47.4375 2.4375 C46.21933594 2.33308594 45.00117188 2.22867188 43.74609375 2.12109375 C40.07122253 1.8870797 40.07122253 1.8870797 36.75976562 2.5 C32.82274444 3.02357269 29.05059462 3.03475728 25.09765625 2.87890625 C24.3750914 2.85529526 23.65252655 2.83168427 22.9080658 2.80735779 C20.62597173 2.73148009 18.34428432 2.64713556 16.0625 2.5625 C14.50457644 2.50920304 12.9466337 2.45646333 11.38867188 2.40429688 C7.59219599 2.27596944 3.79606064 2.14005377 0 2 C0 1.34 0 0.68 0 0 Z " fill="#000000" transform="translate(122,115)"/>
<path d="M0 0 C3.58305992 -0.11627503 7.16563417 -0.1872736 10.75 -0.25 C11.76578125 -0.28351563 12.7815625 -0.31703125 13.828125 -0.3515625 C21.35573934 -0.45061006 21.35573934 -0.45061006 24.703125 1.890625 C26 4 26 4 26 6 C26.66 6.33 27.32 6.66 28 7 C26.68 7 25.36 7 24 7 C23.34 5.68 22.68 4.36 22 3 C16.39 2.67 10.78 2.34 5 2 C7.57333694 6.2888949 8.39456122 7.61051245 12.1875 10.1875 C14.35546875 11.66796875 14.35546875 11.66796875 16 13 C16 13.66 16 14.32 16 15 C16.66 15.33 17.32 15.66 18 16 C15 16 15 16 13 15 C13 14.34 13 13.68 13 13 C12.41734375 12.731875 11.8346875 12.46375 11.234375 12.1875 C8.97213399 10.98519009 7.19423682 9.66174087 5.25 8 C4.63640625 7.484375 4.0228125 6.96875 3.390625 6.4375 C2 5 2 5 2 3 C1.01 2.67 0.02 2.34 -1 2 C-0.67 1.34 -0.34 0.68 0 0 Z " fill="#010101" transform="translate(100,158)"/>
<path d="M0 0 C0.33 0.66 0.66 1.32 1 2 C3.01669827 3.13350534 3.01669827 3.13350534 5 4 C5 4.66 5 5.32 5 6 C5.99 6 6.98 6 8 6 C8.6875 7.75 8.6875 7.75 9 10 C7.5625 12.25 7.5625 12.25 6 14 C4.68 13.67 3.36 13.34 2 13 C2.495 12.54625 2.99 12.0925 3.5 11.625 C5.22609337 10.12364481 5.22609337 10.12364481 5 8 C4.34 7.67 3.68 7.34 3 7 C3 6.34 3 5.68 3 5 C-0.37097383 3.50178941 -2.20442119 3 -6 3 C-6.66 2.67 -7.32 2.34 -8 2 C-8 2.66 -8 3.32 -8 4 C-8.639375 4.103125 -9.27875 4.20625 -9.9375 4.3125 C-10.618125 4.539375 -11.29875 4.76625 -12 5 C-12.33 5.99 -12.66 6.98 -13 8 C-13.99 7.34 -14.98 6.68 -16 6 C-6.91689008 -1.84450402 -6.91689008 -1.84450402 0 0 Z " fill="#020202" transform="translate(150,228)"/>
<path d="M0 0 C0.99 0 1.98 0 3 0 C3.02687279 1.81242052 3.04633715 3.62495233 3.0625 5.4375 C3.07410156 6.44683594 3.08570313 7.45617187 3.09765625 8.49609375 C3 11 3 11 2 12 C-0.6662603 12.08855161 -3.30647114 12.11524673 -5.97265625 12.09765625 C-6.77029892 12.0962413 -7.56794159 12.09482635 -8.38975525 12.09336853 C-10.94737435 12.08775316 -13.50490718 12.07519812 -16.0625 12.0625 C-17.79231645 12.05748698 -19.52213426 12.05292373 -21.25195312 12.04882812 C-25.50133553 12.03777875 -29.75065312 12.02050386 -34 12 C-32 10 -32 10 -28.83544922 9.77294922 C-27.49182037 9.77326611 -26.1481659 9.78457819 -24.8046875 9.8046875 C-24.09724396 9.8075174 -23.38980042 9.81034729 -22.66091919 9.81326294 C-20.3987749 9.82446863 -18.13702485 9.84957321 -15.875 9.875 C-14.34245363 9.88502933 -12.80990106 9.89415526 -11.27734375 9.90234375 C-7.51807699 9.92440914 -3.75910536 9.95894104 0 10 C0 6.7 0 3.4 0 0 Z " fill="#000000" transform="translate(98,335)"/>
<path d="M0 0 C1.32 0.66 2.64 1.32 4 2 C3.42655063 4.86724686 3.1385485 5.8614515 1 8 C0.72212332 10.42597951 0.72212332 10.42597951 0.8046875 13.2265625 C0.81113281 14.2578125 0.81757813 15.2890625 0.82421875 16.3515625 C0.84097656 17.43179687 0.85773438 18.51203125 0.875 19.625 C0.88853516 21.25695312 0.88853516 21.25695312 0.90234375 22.921875 C0.92596591 25.61480152 0.95890444 28.30729255 1 31 C-0.65 31.33 -2.3 31.66 -4 32 C-3.34 31.67 -2.68 31.34 -2 31 C-2.01571045 29.91114502 -2.01571045 29.91114502 -2.03173828 28.80029297 C-2.0734696 25.49189759 -2.09938064 22.18355776 -2.125 18.875 C-2.14175781 17.73289062 -2.15851563 16.59078125 -2.17578125 15.4140625 C-2.18222656 14.30546875 -2.18867188 13.196875 -2.1953125 12.0546875 C-2.20578613 11.03874512 -2.21625977 10.02280273 -2.22705078 8.97607422 C-1.97841818 5.71711571 -1.14878364 3.04884793 0 0 Z M1 4 C2 6 2 6 2 6 Z " fill="#020202" transform="translate(160,315)"/>
<path d="M0 0 C0 3 0 3 0 3 Z M-2 3 C-2 10.31180852 -9.52664006 16.91497169 -14.265625 21.95703125 C-15.92405903 23.91054701 -16.91844489 25.69560555 -18 28 C-19.625 29.75 -19.625 29.75 -21 31 C-21.66 30.67 -22.32 30.34 -23 30 C-21.625 27.5 -21.625 27.5 -20 25 C-19.34 25 -18.68 25 -18 25 C-17.71125 24.236875 -17.4225 23.47375 -17.125 22.6875 C-16 20 -16 20 -14 17 C-13.34 17 -12.68 17 -12 17 C-11.773125 16.29875 -11.54625 15.5975 -11.3125 14.875 C-9.17557235 10.19411087 -5.7146048 6.51909928 -2 3 Z " fill="#020202" transform="translate(200,87)"/>
<path d="M0 0 C0.99 0.66 1.98 1.32 3 2 C3.1875 4.625 3.1875 4.625 3 7 C2.34 7 1.68 7 1 7 C0.566875 8.36125 0.566875 8.36125 0.125 9.75 C-0.76531776 12.32202908 -1.71494413 14.61346766 -3 17 C-3.66 17 -4.32 17 -5 17 C-5.103125 17.763125 -5.20625 18.52625 -5.3125 19.3125 C-6.04711194 22.18416484 -6.6716065 23.23042094 -9 25 C-9.66 25 -10.32 25 -11 25 C-11.33 25.99 -11.66 26.98 -12 28 C-12.66 27.67 -13.32 27.34 -14 27 C-13.505 25.515 -13.505 25.515 -13 24 C-12.01 24 -11.02 24 -10 24 C-9.87625 23.4225 -9.7525 22.845 -9.625 22.25 C-8.99351176 19.97664233 -8.11141809 18.0746471 -7 16 C-6.34 16 -5.68 16 -5 16 C-4.566875 14.3603125 -4.566875 14.3603125 -4.125 12.6875 C-3 9 -3 9 -1 6 C-0.60986284 4.0103005 -0.26797351 2.00980131 0 0 Z " fill="#020202" transform="translate(69,159)"/>
<path d="M0 0 C1.98 0.99 1.98 0.99 4 2 C4 2.66 4 3.32 4 4 C4.598125 4.25136719 5.19625 4.50273437 5.8125 4.76171875 C8.29090227 6.16467147 9.37025351 7.49631138 11 9.8125 C12.73785913 12.24285629 14.46893657 14.56766006 16.375 16.875 C18 19 18 19 18 21 C18.99 21.33 19.98 21.66 21 22 C21 22.99 21 23.98 21 25 C20.34 25 19.68 25 19 25 C17.51953125 23.34765625 17.51953125 23.34765625 15.8125 21.0625 C15.19890625 20.2478125 14.5853125 19.433125 13.953125 18.59375 C13.30859375 17.7378125 12.6640625 16.881875 12 16 C10.09899146 13.61268695 8.19514222 11.22779261 6.28515625 8.84765625 C5 7 5 7 5 5 C4.360625 4.731875 3.72125 4.46375 3.0625 4.1875 C1 3 1 3 0 0 Z " fill="#020202" transform="translate(182,132)"/>
<path d="M0 0 C0.66 0 1.32 0 2 0 C2.2475 0.886875 2.495 1.77375 2.75 2.6875 C4.04147017 6.10989594 5.67895325 8.2147439 8 11 C8 11.66 8 12.32 8 13 C8.639375 13.268125 9.27875 13.53625 9.9375 13.8125 C12 15 12 15 13 18 C13.99 18.33 14.98 18.66 16 19 C16 19.99 16 20.98 16 22 C16.99 22.33 17.98 22.66 19 23 C18.67 23.66 18.34 24.32 18 25 C16.33333333 23.33333333 14.66666667 21.66666667 13 20 C12.175 19.195625 11.35 18.39125 10.5 17.5625 C7.82346029 14.8190468 5.43344104 11.95959045 3 9 C2.34 8.34 1.68 7.68 1 7 C0.34 6.34 -0.32 5.68 -1 5 C-0.625 2.375 -0.625 2.375 0 0 Z " fill="#010101" transform="translate(117,230)"/>
<path d="M0 0 C2.0625 0.4375 2.0625 0.4375 4 1 C3.34 1 2.68 1 2 1 C2.02320313 2.27617187 2.04640625 3.55234375 2.0703125 4.8671875 C2.08906829 6.5364525 2.10726869 8.2057238 2.125 9.875 C2.15013672 11.13763672 2.15013672 11.13763672 2.17578125 12.42578125 C2.18222656 13.23144531 2.18867188 14.03710938 2.1953125 14.8671875 C2.21102295 15.98262939 2.21102295 15.98262939 2.22705078 17.12060547 C2 19 2 19 0 21 C-1.13945516 18.72108967 -1.12894214 17.43217896 -1.1328125 14.90234375 C-1.13410156 14.10119141 -1.13539063 13.30003906 -1.13671875 12.47460938 C-1.13285156 11.63736328 -1.12898437 10.80011719 -1.125 9.9375 C-1.12886719 9.09638672 -1.13273438 8.25527344 -1.13671875 7.38867188 C-1.12662682 1.12662682 -1.12662682 1.12662682 0 0 Z " fill="#010101" transform="translate(179,294)"/>
<path d="M0 0 C0.33 0 0.66 0 1 0 C1.33 1.65 1.66 3.3 2 5 C2.33 5 2.66 5 3 5 C3.33 11.6 3.66 18.2 4 25 C3.01 25 2.02 25 1 25 C1 24.34 1 23.68 1 23 C0.34 22.67 -0.32 22.34 -1 22 C-0.67 14.74 -0.34 7.48 0 0 Z " fill="#010101" transform="translate(218,141)"/>
<path d="M0 0 C4.81035973 4.3730543 8.59926143 9.46277438 12 15 C12 15.66 12 16.32 12 17 C12.99 17.33 13.98 17.66 15 18 C14.01 18.33 13.02 18.66 12 19 C11.01 18.34 10.02 17.68 9 17 C9 16.01 9 15.02 9 14 C8.34 14 7.68 14 7 14 C3 7.25 3 7.25 3 5 C2.34 5 1.68 5 1 5 C0.67 3.35 0.34 1.7 0 0 Z " fill="#030303" transform="translate(168,328)"/>
<path d="M0 0 C0.33 0.66 0.66 1.32 1 2 C-9.14508277 18.32035054 -9.14508277 18.32035054 -16 21 C-14.56975239 17.79452042 -12.79566927 15.4645554 -10.4375 12.875 C-7.92320784 10.13961955 -7.92320784 10.13961955 -6 7 C-5.34 7 -4.68 7 -4 7 C-3.71125 6.030625 -3.4225 5.06125 -3.125 4.0625 C-2 1 -2 1 0 0 Z " fill="#010101" transform="translate(174,230)"/>
<path d="M0 0 C0.66 0.66 1.32 1.32 2 2 C0.02 4.64 -1.96 7.28 -4 10 C-3.113125 10.144375 -2.22625 10.28875 -1.3125 10.4375 C1.47117646 10.91019978 4.23483757 11.43070185 7 12 C7 12.33 7 12.66 7 13 C2.38 13 -2.24 13 -7 13 C-6.22404875 9.89619499 -5.4731994 7.74997221 -4 5 C-3.34 5 -2.68 5 -2 5 C-1.34 3.35 -0.68 1.7 0 0 Z " fill="#010101" transform="translate(205,334)"/>
<path d="M0 0 C3.3 0 6.6 0 10 0 C8.02 0.99 8.02 0.99 6 2 C5.67 2.825 5.34 3.65 5 4.5 C4 7 4 7 0 9 C0 6.03 0 3.06 0 0 Z " fill="#0B0B0B" transform="translate(147,294)"/>
<path d="M0 0 C0 4.42247574 -2.58785217 6.37602013 -5.37109375 9.6484375 C-7.11388988 12.16441657 -7.62251902 13.99078542 -8 17 C-7.34 17.33 -6.68 17.66 -6 18 C-6.99 18 -7.98 18 -9 18 C-9.66 17.34 -10.32 16.68 -11 16 C-10.91337258 12.10176617 -10.34216256 10.38968514 -7.75 7.4375 C-6.8425 6.633125 -5.935 5.82875 -5 5 C-4.071875 4.071875 -3.14375 3.14375 -2.1875 2.1875 C-1.1046875 1.1046875 -1.1046875 1.1046875 0 0 Z " fill="#020202" transform="translate(197,107)"/>
<path d="M0 0 C0.66 0 1.32 0 2 0 C2 1.98 2 3.96 2 6 C1.236875 6.20625 0.47375 6.4125 -0.3125 6.625 C-3.82229103 8.42070704 -4.52599781 10.43136312 -6 14 C-6.66 14 -7.32 14 -8 14 C-8 14.66 -8 15.32 -8 16 C-8.99 15.67 -9.98 15.34 -11 15 C-10.67 14.34 -10.34 13.68 -10 13 C-9.34 13 -8.68 13 -8 13 C-7.6596875 11.948125 -7.6596875 11.948125 -7.3125 10.875 C-5.68313471 7.30591412 -3.56822931 4.96334151 -1 2 C-0.67 1.34 -0.34 0.68 0 0 Z " fill="#010101" transform="translate(217,64)"/>
<path d="M0 0 C0.99 0 1.98 0 3 0 C2.979375 1.299375 2.95875 2.59875 2.9375 3.9375 C2.91778447 8.09090541 3.32602397 12.05395099 3.9765625 16.15234375 C3.98429688 16.76207031 3.99203125 17.37179688 4 18 C3.34 18.66 2.68 19.32 2 20 C0.45049732 18.45049732 0.78344807 16.90009406 0.68359375 14.74609375 C0.64169922 13.89208984 0.59980469 13.03808594 0.55664062 12.15820312 C0.51732422 11.26037109 0.47800781 10.36253906 0.4375 9.4375 C0.39431641 8.53580078 0.35113281 7.63410156 0.30664062 6.70507812 C0.20021858 4.47021515 0.09820012 2.23523692 0 0 Z " fill="#060606" transform="translate(209,92)"/>
<path d="M0 0 C1.93166016 0.01740234 1.93166016 0.01740234 3.90234375 0.03515625 C5.19269531 0.04417969 6.48304688 0.05320312 7.8125 0.0625 C8.81152344 0.07410156 9.81054688 0.08570313 10.83984375 0.09765625 C10.83984375 1.08765625 10.83984375 2.07765625 10.83984375 3.09765625 C9.84984375 2.76765625 8.85984375 2.43765625 7.83984375 2.09765625 C6.84984375 2.42765625 5.85984375 2.75765625 4.83984375 3.09765625 C2.15234375 2.66015625 2.15234375 2.66015625 -0.16015625 2.09765625 C0.16984375 3.74765625 0.49984375 5.39765625 0.83984375 7.09765625 C0.17984375 6.76765625 -0.48015625 6.43765625 -1.16015625 6.09765625 C-1.16015625 5.43765625 -1.16015625 4.77765625 -1.16015625 4.09765625 C-1.82015625 4.09765625 -2.48015625 4.09765625 -3.16015625 4.09765625 C-3.49015625 3.10765625 -3.82015625 2.11765625 -4.16015625 1.09765625 C-3.16015625 0.09765625 -3.16015625 0.09765625 0 0 Z " fill="#030303" transform="translate(202.16015625,293.90234375)"/>
<path d="M0 0 C3.25984102 1.08661367 6.04282526 2.23827888 9 4 C10.25 6.625 10.25 6.625 11 9 C11.66 9.33 12.32 9.66 13 10 C8.2638857 10 7.62273773 9.22218726 4.25 6.125 C3.05117187 5.04605469 3.05117187 5.04605469 1.828125 3.9453125 C0 2 0 2 0 0 Z " fill="#030303" transform="translate(84,209)"/>
<path d="M0 0 C0.3403125 0.8353125 0.3403125 0.8353125 0.6875 1.6875 C2.97604059 5.71969057 6.17587898 8.45058599 10 11 C10 11.66 10 12.32 10 13 C10.99 13.33 11.98 13.66 13 14 C13.33 14.99 13.66 15.98 14 17 C10.00567219 15.37938967 7.20441679 12.60660827 4.1875 9.625 C3.67251953 9.14289063 3.15753906 8.66078125 2.62695312 8.1640625 C1.16796875 6.7265625 1.16796875 6.7265625 -1 4 C-0.82421875 1.6484375 -0.82421875 1.6484375 0 0 Z " fill="#010101" transform="translate(123,196)"/>
<path d="M0 0 C1.05960938 0.00676758 1.05960938 0.00676758 2.140625 0.01367188 C3.88545275 0.02546125 5.630237 0.04339676 7.375 0.0625 C6.715 2.0425 6.055 4.0225 5.375 6.0625 C4.715 5.7325 4.055 5.4025 3.375 5.0625 C3.705 3.7425 4.035 2.4225 4.375 1.0625 C2.56174449 1.17601517 0.74936643 1.30362961 -1.0625 1.4375 C-2.07183594 1.50710938 -3.08117187 1.57671875 -4.12109375 1.6484375 C-5.36052734 1.85339844 -5.36052734 1.85339844 -6.625 2.0625 C-6.955 2.7225 -7.285 3.3825 -7.625 4.0625 C-8.285 4.0625 -8.945 4.0625 -9.625 4.0625 C-9.955 4.7225 -10.285 5.3825 -10.625 6.0625 C-10.25 3.625 -10.25 3.625 -9.625 1.0625 C-6.55966836 -0.47016582 -3.35745728 -0.04026471 0 0 Z " fill="#010101" transform="translate(134.625,293.9375)"/>
<path d="M0 0 C0.99 0 1.98 0 3 0 C4.28125 1.4609375 4.28125 1.4609375 5.5 3.375 C7.25874134 6.11457786 8.17284998 7.11523332 11 9 C11 9.66 11 10.32 11 11 C11.66 11.33 12.32 11.66 13 12 C10.1040862 11.91482606 8.45083874 11.45855481 6.40234375 9.375 C5.35631791 8.10023632 4.33195129 6.80733454 3.33203125 5.49609375 C2.67267578 4.75552734 2.67267578 4.75552734 2 4 C1.34 4 0.68 4 0 4 C0 2.68 0 1.36 0 0 Z " fill="#030303" transform="translate(131,235)"/>
<path d="M0 0 C1.875 0.125 1.875 0.125 4 1 C5.25 4.0625 5.25 4.0625 6 7 C6.66 7 7.32 7 8 7 C8 8.65 8 10.3 8 12 C7.01 12.495 7.01 12.495 6 13 C3 6.375 3 6.375 3 3 C2.34 2.67 1.68 2.34 1 2 C0.67 1.34 0.34 0.68 0 0 Z " fill="#010101" transform="translate(95,302)"/>
<path d="M0 0 C1.32 0.99 2.64 1.98 4 3 C2.8828125 4.51171875 2.8828125 4.51171875 1 6 C-1.8828125 6.14453125 -1.8828125 6.14453125 -5.125 5.8125 C-6.20007813 5.71582031 -7.27515625 5.61914062 -8.3828125 5.51953125 C-9.67832031 5.26236328 -9.67832031 5.26236328 -11 5 C-11.33 4.34 -11.66 3.68 -12 3 C-8.04 3 -4.08 3 0 3 C0 2.01 0 1.02 0 0 Z " fill="#020202" transform="translate(243,342)"/>
<path d="M0 0 C1.2065625 0.0309375 1.2065625 0.0309375 2.4375 0.0625 C2.125 2 2.125 2 1.4375 4.0625 C0.4475 4.3925 -0.5425 4.7225 -1.5625 5.0625 C-2.29573796 7.07758358 -2.29573796 7.07758358 -2.5625 9.0625 C-3.2225 9.0625 -3.8825 9.0625 -4.5625 9.0625 C-3.56521739 0.08695652 -3.56521739 0.08695652 0 0 Z " fill="#040404" transform="translate(244.5625,293.9375)"/>
<path d="M0 0 C4.95258714 3.77339973 8.43679155 7.90789714 12 13 C11.67 13.66 11.34 14.32 11 15 C0 2.54775281 0 2.54775281 0 0 Z " fill="#010101" transform="translate(92,107)"/>
<path d="M0 0 C1.32 0 2.64 0 4 0 C3.67 2.97 3.34 5.94 3 9 C1 8 1 8 -1 5 C-1 2 -1 2 0 0 Z " fill="#010101" transform="translate(175,211)"/>
<path d="M0 0 C1.32 0.33 2.64 0.66 4 1 C3.38461538 8.50769231 3.38461538 8.50769231 1.4375 11 C0.7259375 11.495 0.7259375 11.495 0 12 C-0.66 11.67 -1.32 11.34 -2 11 C-0.68 7.7 0.64 4.4 2 1 C1.34 0.67 0.68 0.34 0 0 Z M2 3 C3 5 3 5 3 5 Z " fill="#020202" transform="translate(212,316)"/>
<path d="M0 0 C1.32 0.66 2.64 1.32 4 2 C3.34 2.66 2.68 3.32 2 4 C2.350625 4.598125 2.70125 5.19625 3.0625 5.8125 C4 8 4 8 3 11 C3 10.34 3 9.68 3 9 C2.34 9 1.68 9 1 9 C-1 6 -1 6 -0.625 2.8125 C-0.41875 1.884375 -0.2125 0.95625 0 0 Z " fill="#070707" transform="translate(83,90)"/>
<path d="M0 0 C0.99 0.66 1.98 1.32 3 2 C2.0409375 3.1446875 2.0409375 3.1446875 1.0625 4.3125 C-1.14232781 6.88246713 -1.14232781 6.88246713 -2 10 C-2.99 10.33 -3.98 10.66 -5 11 C-4.54917531 9.53932801 -4.08906463 8.08151968 -3.625 6.625 C-3.36976563 5.81289063 -3.11453125 5.00078125 -2.8515625 4.1640625 C-2 2 -2 2 0 0 Z " fill="#050505" transform="translate(231,293)"/>
<path d="M0 0 C0.33 0.66 0.66 1.32 1 2 C0.01 3.485 0.01 3.485 -1 5 C-1.66 5 -2.32 5 -3 5 C-3 5.66 -3 6.32 -3 7 C-3.66 7 -4.32 7 -5 7 C-5 7.66 -5 8.32 -5 9 C-6.32 8.67 -7.64 8.34 -9 8 C-8.67 7.01 -8.34 6.02 -8 5 C-8 5.66 -8 6.32 -8 7 C-5.36 4.69 -2.72 2.38 0 0 Z " fill="#000000" transform="translate(152,256)"/>
<path d="M0 0 C0.66 0.33 1.32 0.66 2 1 C1.67 2.32 1.34 3.64 1 5 C0.34 5 -0.32 5 -1 5 C-2.34882408 5.63474075 -3.6846659 6.29848848 -5 7 C-5 6.01 -5 5.02 -5 4 C-2.5 1.8125 -2.5 1.8125 0 0 Z " fill="#020202" transform="translate(207,94)"/>
<path d="M0 0 C1.98 0.495 1.98 0.495 4 1 C4 1.66 4 2.32 4 3 C4.63474075 4.34882408 5.29848848 5.6846659 6 7 C5.01 7 4.02 7 3 7 C0.8125 4.5 0.8125 4.5 -1 2 C-0.67 1.34 -0.34 0.68 0 0 Z " fill="#010101" transform="translate(91,294)"/>
<path d="M0 0 C3.71599191 -0.20086443 4.77208445 -0.1519437 8 2 C8 2.66 8 3.32 8 4 C5.36 3.67 2.72 3.34 0 3 C0 2.01 0 1.02 0 0 Z " fill="#010101" transform="translate(110,114)"/>
<path d="M0 0 C0.66 0.66 1.32 1.32 2 2 C0.26440562 5.057952 -1.38472619 7.63379989 -4 10 C-3.47731534 7.23723823 -2.89130413 4.6739124 -2 2 C-1.34 2 -0.68 2 0 2 C0 1.34 0 0.68 0 0 Z " fill="#010101" transform="translate(123,300)"/>
<path d="M0 0 C3.3 0 6.6 0 10 0 C6.66189518 1.66905241 3.53842155 2.8741386 0 4 C0 2.68 0 1.36 0 0 Z " fill="#040404" transform="translate(147,294)"/>
<path d="M0 0 C3.59391114 1.33488128 6.75490696 2.96022723 10 5 C7 6 7 6 5.17578125 5.22265625 C3.45052083 4.1484375 1.72526042 3.07421875 0 2 C0 1.34 0 0.68 0 0 Z " fill="#010101" transform="translate(65,197)"/>
<path d="M0 0 C2 3 2 3 1.8125 5.125 C1.544375 5.74375 1.27625 6.3625 1 7 C0.01 7.33 -0.98 7.66 -2 8 C-1.125 2.25 -1.125 2.25 0 0 Z " fill="#030303" transform="translate(175,219)"/>
<path d="M0 0 C0.33 0 0.66 0 1 0 C1 3.63 1 7.26 1 11 C0.67 11 0.34 11 0 11 C0 7.37 0 3.74 0 0 Z " fill="#000000" transform="translate(69,66)"/>
<path d="M0 0 C0.33 0 0.66 0 1 0 C1 1.65 1 3.3 1 5 C0.67 5 0.34 5 0 5 C0 3.35 0 1.7 0 0 Z " fill="#000000" transform="translate(69,152)"/>
<path d="M0 0 C0.33 0 0.66 0 1 0 C1 1.65 1 3.3 1 5 C0.67 5 0.34 5 0 5 C0 3.35 0 1.7 0 0 Z " fill="#000000" transform="translate(220,138)"/>
<path d="M0 0 C1 4 1 4 1 4 Z " fill="#000000" transform="translate(62,295)"/>
<path d="" fill="#000000" transform="translate(0,0)"/>
<path d="M0 0 C0.66 0.66 1.32 1.32 2 2 C1.34 2 0.68 2 0 2 C0 1.34 0 0.68 0 0 Z " fill="#000000" transform="translate(100,121)"/>
<path d="M0 0 C3 1 3 1 3 1 Z " fill="#000000" transform="translate(118,115)"/>
<path d="" fill="#000000" transform="translate(0,0)"/>
<path d="" fill="#000000" transform="translate(0,0)"/>
<path d="" fill="#000000" transform="translate(0,0)"/>
<path d="" fill="#000000" transform="translate(0,0)"/>
<path d="" fill="#000000" transform="translate(0,0)"/>
<path d="" fill="#000000" transform="translate(0,0)"/>
<path d="" fill="#000000" transform="translate(0,0)"/>
<path d="" fill="#000000" transform="translate(0,0)"/>
<path d="" fill="#000000" transform="translate(0,0)"/>
<path d="" fill="#000000" transform="translate(0,0)"/>
</svg>
