<?xml version="1.0" encoding="UTF-8"?>
<svg version="1.1" xmlns="http://www.w3.org/2000/svg" width="282" height="390">
<path d="M0 0 C93.06 0 186.12 0 282 0 C282 128.7 282 257.4 282 390 C188.94 390 95.88 390 0 390 C0 261.3 0 132.6 0 0 Z " fill="#FEFEFE" transform="translate(0,0)"/>
<path d="M0 0 C3.21323992 3.16684766 6.03814646 6.23955297 8.625 9.9375 C15.55808124 19.63859107 23.04394283 28.91892078 30.63671875 38.109375 C33 41 33 41 34.45811462 43.42062378 C37.19991569 47.5832448 39.31134901 50.49065744 44.19920349 51.96496582 C48.10525944 52.35538479 51.94813377 52.44620632 55.8671875 52.3984375 C57.3115574 52.41027881 58.75590768 52.42478207 60.20022583 52.44180298 C63.21867581 52.46548158 66.23416929 52.45230988 69.25244141 52.41357422 C73.09726699 52.3678412 76.93323839 52.42127916 80.77718925 52.50369835 C83.75829671 52.55518924 86.73733092 52.54961083 89.7187233 52.52791214 C91.13399422 52.52496453 92.54943456 52.54002137 93.96429062 52.5744133 C101.67970168 52.82907849 101.67970168 52.82907849 108.56272125 49.820961 C111.888193 46.57854565 114.43246079 42.86270537 117 39 C118.15361246 37.51062985 119.3173384 36.02890945 120.5 34.5625 C121.66828646 33.04291062 122.83481853 31.52197151 124 30 C124.73605469 29.04867187 125.47210938 28.09734375 126.23046875 27.1171875 C129.93852025 22.32113139 133.62730984 17.51437342 137.23828125 12.64453125 C138.05196167 11.54927124 138.05196167 11.54927124 138.88208008 10.43188477 C139.94667305 8.99620235 141.00780991 7.55794959 142.06518555 6.11694336 C145.77907155 1.11046422 145.77907155 1.11046422 148 0 C147.96882835 1.78047729 147.96882835 1.78047729 147.93702698 3.59692383 C147.74937911 14.89148742 147.64359825 26.18438674 147.61396885 37.48049927 C147.59621832 43.28569466 147.55158915 49.08785902 147.44116211 54.89208984 C145.93537132 90.78611373 145.93537132 90.78611373 162.53233337 121.265625 C164 123 164 123 165 126 C163.93523437 126.60585937 162.87046875 127.21171875 161.7734375 127.8359375 C143.69116757 138.22941926 128.64441754 150.07515745 114 165 C113 163 113 163 113.93359375 160.12890625 C117.40002969 151.90850102 121.30128445 144.94760533 127 138 C127.68964844 137.14664063 128.37929687 136.29328125 129.08984375 135.4140625 C134.61993905 128.91395049 140.83515619 123.62752783 148 119 C148.66 119 149.32 119 150 119 C141.65965556 104.6742319 131.64570709 91.74358613 121.01293945 79.05151367 C117 74.21221781 117 74.21221781 117 72 C116.34 72 115.68 72 115 72 C113.4921875 70.3203125 113.4921875 70.3203125 111.875 68.125 C111.33617187 67.40570313 110.79734375 66.68640625 110.2421875 65.9453125 C109 64 109 64 109 62 C100.22777811 61.75851663 91.45955861 61.60583661 82.68410969 61.56215668 C78.60744483 61.53916603 74.5357067 61.48721591 70.46069336 61.36572266 C51.71351661 59.92681767 51.71351661 59.92681767 35.07006836 66.41796875 C32.14539562 69.63494036 29.98758884 73.07556745 28.0581665 76.95986938 C26.35894524 80.23594485 24.14888365 83.04983369 21.9375 86 C21.13659452 87.13518791 20.33923381 88.27289262 19.546875 89.4140625 C16.22212783 94.1421807 12.71203277 98.7326614 9.19702148 103.3203125 C2.76477436 110.95005383 2.76477436 110.95005383 0 120 C2.12624022 121.58010159 2.12624022 121.58010159 4.875 123.0625 C20.52802502 132.63941505 30.28530207 147.56990461 35 165 C34.360625 164.360625 33.72125 163.72125 33.0625 163.0625 C32.59585938 162.60101563 32.12921875 162.13953125 31.6484375 161.6640625 C30.48699766 160.49161375 29.34820185 159.29651741 28.2265625 158.0859375 C17.13449153 146.39888955 3.70500179 137.84513203 -10.25146484 129.99169922 C-12.52577162 128.70180336 -14.76576578 127.35789381 -17 126 C-14.68532828 121.61010536 -12.41329925 117.46016192 -9.32792664 113.56544495 C-0.10545001 101.52731833 0.54718819 91.27030283 0.29296875 76.46484375 C0.29489512 74.24710681 0.30168091 72.02936933 0.31306458 69.81166077 C0.329911 64.03234629 0.28166357 58.25542594 0.21887207 52.47650146 C0.16639427 46.55661812 0.1768303 40.63686178 0.18164062 34.71679688 C0.18193839 23.14381677 0.11332454 11.57238712 0 0 Z " fill="#141414" transform="translate(71,65)"/>
<path d="M0 0 C17.28595823 -1.84421384 17.28595823 -1.84421384 24.3984375 1.6875 C31.16375472 8.8688076 30.6596061 17.36307681 30.5625 26.75 C30.2840625 33.30875 30.2840625 33.30875 30 40 C39.24 40 48.48 40 58 40 C57.814375 35.813125 57.62875 31.62625 57.4375 27.3125 C57.25447762 9.41697881 57.25447762 9.41697881 63.53515625 1.9453125 C71.17385869 -2.34338402 80.55561556 -0.92825613 89 0 C83.62234223 6.93622672 77.41885781 12.99459843 69 16 C68.01 16 67.02 16 66 16 C66.06807861 16.71953857 66.13615723 17.43907715 66.20629883 18.18041992 C68.01311933 40.15959089 68.01311933 40.15959089 63.24609375 46.515625 C60.15095401 49.82051433 56.72534397 52.43995082 53 55 C52.20078125 55.59941406 51.4015625 56.19882813 50.578125 56.81640625 C50.05734375 57.20699219 49.5365625 57.59757812 49 58 C50.50244436 61.82440382 52.52010111 63.83472958 56 66 C59.32473208 67.08583177 59.32473208 67.08583177 63 66 C66.3373986 63.2933812 69.13120372 60.18811459 72 57 C73.65847105 55.32517782 75.32306819 53.65633791 77 52 C76.29796584 55.41059147 75.57510607 58.81325511 74.8125 62.2109375 C73.98370651 65.82834504 73.98370651 65.82834504 73.625 68.8515625 C72.05547723 78.12856315 65.29151633 83.72125077 58.89404297 90.08935547 C55.88413488 93.12564584 53.00801866 96.2813071 50.125 99.4375 C49.12806583 100.51995662 48.13071698 101.60203158 47.1328125 102.68359375 C46.42898437 103.44800781 45.72515625 104.21242188 45 105 C41.75043399 103.91681133 41.16607364 103.29783983 39.0625 100.75 C35.32997053 96.33449706 31.41758911 92.11470519 27.43969727 87.92089844 C25.9291076 86.30553521 24.45863741 84.66238964 23 83 C22.20529297 82.11731445 22.20529297 82.11731445 21.39453125 81.21679688 C16.84942439 75.75931019 15.44538874 70.39134396 14.125 63.5 C13.91359375 62.48679688 13.7021875 61.47359375 13.484375 60.4296875 C12.97102526 57.95627514 12.47680547 55.48066845 12 53 C14 53 14 53 15.5859375 54.57421875 C16.17632812 55.27160156 16.76671875 55.96898437 17.375 56.6875 C18.00148438 57.41324219 18.62796875 58.13898438 19.2734375 58.88671875 C21 61 21 61 23 64 C24.93029362 66.29393088 24.93029362 66.29393088 28.25 66.6875 C33.27606202 65.7660553 36.21184326 63.3060277 40 60 C38.57586404 56.74689754 36.84420802 54.60199527 34.3125 52.125 C33.34763672 51.16980469 33.34763672 51.16980469 32.36328125 50.1953125 C30.19626889 48.04090982 30.19626889 48.04090982 28.18481445 46.87548828 C25.98576575 45.39496823 24.53863267 44.17221803 23 42 C22.1372921 37.51331798 22.3383319 33.17241003 22.5625 28.625 C22.59408203 27.41199219 22.62566406 26.19898438 22.65820312 24.94921875 C22.74048235 21.96365816 22.85539067 18.9830839 23 16 C21.92621094 15.88785156 20.85242188 15.77570313 19.74609375 15.66015625 C11.56650767 14.21870677 5.38323857 6.9988749 0 1 C0 0.67 0 0.34 0 0 Z " fill="#141414" transform="translate(101,159)"/>
<path d="M0 0 C3.34918801 3.29746043 6.27578589 6.54132772 9 10.375 C10.0209375 11.80392578 10.0209375 11.80392578 11.0625 13.26171875 C11.701875 14.16535156 12.34125 15.06898437 13 16 C13.99962076 17.39610495 14.99955153 18.79198807 16 20.1875 C16.66 21.115625 17.32 22.04375 18 23 C17.34 23.66 16.68 24.32 16 25 C16 25.66 16 26.32 16 27 C15.34 27.66 14.68 28.32 14 29 C14 29.99 14 30.98 14 32 C12.68 30.68 11.36 29.36 10 28 C9.67 47.47 9.34 66.94 9 87 C9.66 87.33 10.32 87.66 11 88 C13 89 15 90 17 91 C15.52876262 95.43015054 13.07876548 98.7225032 10.1875 102.3125 C3.10421391 110.36987204 3.10421391 110.36987204 0 120 C2.12624022 121.58010159 2.12624022 121.58010159 4.875 123.0625 C20.52802502 132.63941505 30.28530207 147.56990461 35 165 C34.360625 164.360625 33.72125 163.72125 33.0625 163.0625 C32.59585938 162.60101563 32.12921875 162.13953125 31.6484375 161.6640625 C30.48699766 160.49161375 29.34820185 159.29651741 28.2265625 158.0859375 C17.13449153 146.39888955 3.70500179 137.84513203 -10.25146484 129.99169922 C-12.52577162 128.70180336 -14.76576578 127.35789381 -17 126 C-14.68532828 121.61010536 -12.41329925 117.46016192 -9.32792664 113.56544495 C-0.10545001 101.52731833 0.54718819 91.27030283 0.29296875 76.46484375 C0.29489512 74.24710681 0.30168091 72.02936933 0.31306458 69.81166077 C0.329911 64.03234629 0.28166357 58.25542594 0.21887207 52.47650146 C0.16639427 46.55661812 0.1768303 40.63686178 0.18164062 34.71679688 C0.18193839 23.14381677 0.11332454 11.57238712 0 0 Z " fill="#181818" transform="translate(71,65)"/>
<path d="M0 0 C11 0 11 0 13.578125 2.01953125 C14.12984375 2.94121094 14.6815625 3.86289062 15.25 4.8125 C16.19552734 6.31490234 16.19552734 6.31490234 17.16015625 7.84765625 C17.76730469 8.88792969 18.37445313 9.92820312 19 11 C20.22441815 12.91970362 21.45341119 14.83649886 22.6875 16.75 C23.20699219 17.59046875 23.72648437 18.4309375 24.26171875 19.296875 C26.39158747 22.60894052 28.71121132 25.79569584 31 29 C31.33 19.76 31.66 10.52 32 1 C35.63 1 39.26 1 43 1 C44.19388403 36.68316155 44.19388403 36.68316155 44 52 C39.82369122 52.68909095 36.15939146 52.87809375 32 52 C28.9248477 49.39421305 27.04882266 46.30546557 25.05664062 42.82421875 C23.87555172 40.78514844 22.62481619 38.80027457 21.359375 36.8125 C19.21441823 33.43847919 17.10415643 30.0454617 15.01806641 26.63476562 C14.04348213 25.06982166 13.02264576 23.53396864 12 22 C11.67 31.9 11.34 41.8 11 52 C7.37 52 3.74 52 0 52 C0 34.84 0 17.68 0 0 Z " fill="#121212" transform="translate(148,294)"/>
<path d="M0 0 C4.4747176 -0.60560088 8.54832698 -0.85708991 13 0 C16.2466904 2.87438864 18.04302405 6.1699185 20 10 C20.99150972 11.67173151 21.98902526 13.33996751 23 15 C23.57105469 13.9171875 24.14210937 12.834375 24.73046875 11.71875 C31.07901588 0.53770686 31.07901588 0.53770686 36.55859375 -0.99609375 C39.82210446 -0.94247638 42.80952726 -0.67510003 46 0 C44.68119243 3.6091367 43.08221698 6.5718392 40.890625 9.72265625 C40.30152344 10.59083984 39.71242187 11.45902344 39.10546875 12.35351562 C37.86166432 14.1694701 36.60893487 15.97934161 35.34765625 17.78320312 C34.76371094 18.65009766 34.17976563 19.51699219 33.578125 20.41015625 C33.03575195 21.19527588 32.49337891 21.98039551 31.93457031 22.78930664 C30.74019674 24.93970382 30.74019674 24.93970382 31.64892578 26.97973633 C32.09478027 27.64642334 32.54063477 28.31311035 33 29 C33.46873535 29.77553223 33.9374707 30.55106445 34.42041016 31.35009766 C35.22164307 32.61926025 35.22164307 32.61926025 36.0390625 33.9140625 C36.61914062 34.83960938 37.19921875 35.76515625 37.796875 36.71875 C39.02136166 38.66536982 40.2479449 40.61067231 41.4765625 42.5546875 C42.0540625 43.47765625 42.6315625 44.400625 43.2265625 45.3515625 C43.75846191 46.19541504 44.29036133 47.03926758 44.83837891 47.90869141 C46 50 46 50 46 52 C41.37705209 52.96460273 37.57473405 53.30487381 33 52 C28.82061457 47.89548955 26.41982508 42.25233351 24 37 C21.92348243 39.47842419 20.09063525 41.83443961 18.53515625 44.67578125 C16.90525368 47.59404182 15.49454453 49.75747281 13 52 C8.54879571 52.85800083 4.47433691 52.60554936 0 52 C1.74297022 47.0378705 4.5462081 43.43424226 7.734375 39.3046875 C10.9808524 34.84454555 13.42699576 29.86624019 16 25 C15.5153125 24.27820557 15.030625 23.55641113 14.53125 22.81274414 C12.7403491 20.14339774 10.95150455 17.47268888 9.1640625 14.80102539 C8.38884833 13.64324433 7.61280804 12.48601599 6.8359375 11.3293457 C5.72180516 9.67022643 4.61085133 8.00897409 3.5 6.34765625 C2.8296875 5.34742432 2.159375 4.34719238 1.46875 3.31665039 C0 1 0 1 0 0 Z " fill="#141414" transform="translate(199,294)"/>
<path d="M0 0 C4.68493083 -1.12350222 8.36735827 -1.45946013 13 0 C17.22482439 4.32815241 23 12.76866151 23 19 C23.66 19 24.32 19 25 19 C25.27199219 18.14148438 25.54398438 17.28296875 25.82421875 16.3984375 C27.79162584 10.71191202 29.79156441 5.40417678 34 1 C38.49261435 -0.03675716 42.47383354 0.26492334 47 1 C45.41371814 7.00804253 42.2306174 11.89048549 39 17.125 C37.91541957 18.89767509 36.8320398 20.67108547 35.75 22.4453125 C35.03070313 23.61344482 35.03070313 23.61344482 34.296875 24.80517578 C31.98660016 28.71507239 30.75412503 31.3872491 30.5859375 35.984375 C30.54726562 36.91894531 30.50859375 37.85351562 30.46875 38.81640625 C30.42234375 40.26853516 30.42234375 40.26853516 30.375 41.75 C30.33632812 42.73355469 30.29765625 43.71710938 30.2578125 44.73046875 C30.1637203 47.15334289 30.08077848 49.57664545 30 52 C26.04 52 22.08 52 18 52 C18.11794922 50.23462891 18.11794922 50.23462891 18.23828125 48.43359375 C18.65796225 33.56772975 13.41190622 23.73394664 5.53271484 11.40380859 C0 2.72666454 0 2.72666454 0 0 Z " fill="#131313" transform="translate(93,294)"/>
<path d="M0 0 C4.29 0 8.58 0 13 0 C13 13.86 13 27.72 13 42 C20.26 42 27.52 42 35 42 C35 45.3 35 48.6 35 52 C23.45 52 11.9 52 0 52 C0 34.84 0 17.68 0 0 Z " fill="#151515" transform="translate(64,294)"/>
<path d="M0 0 C0.33 0 0.66 0 1 0 C1.06262907 15.29704679 0.93409109 30.58360661 0.62768555 45.87768555 C0.56124812 49.25106459 0.50224631 52.62452849 0.44335938 55.99804688 C0.40148894 58.15886288 0.35918828 60.3196706 0.31640625 62.48046875 C0.29133751 63.98180611 0.29133751 63.98180611 0.26576233 65.51347351 C0.24581711 66.43997208 0.22587189 67.36647064 0.20532227 68.32104492 C0.18977798 69.13103439 0.1742337 69.94102386 0.15821838 70.77555847 C0.10600632 71.50962418 0.05379425 72.24368988 0 73 C-0.04548477 73.71525345 -0.09096954 74.4305069 -0.13783264 75.16743469 C-0.56460548 76.07455452 -0.56460548 76.07455452 -1 77 C-3.97 77.99 -3.97 77.99 -7 79 C-7 61.84 -7 44.68 -7 27 C-7.66 27 -8.32 27 -9 27 C-9.26554688 27.57234375 -9.53109375 28.1446875 -9.8046875 28.734375 C-11.05676891 31.1076012 -12.4936352 33.12213286 -14.125 35.25 C-14.66382813 35.95640625 -15.20265625 36.6628125 -15.7578125 37.390625 C-16.16773438 37.92171875 -16.57765625 38.4528125 -17 39 C-23 36 -23 36 -23.91796875 33.83203125 C-24.03704261 29.72114812 -21.86946172 27.65026809 -19.3125 24.6875 C-18.2987601 23.45999972 -17.28712418 22.23075952 -16.27734375 21 C-15.74351074 20.35546875 -15.20967773 19.7109375 -14.65966797 19.046875 C-11.79051391 15.50833608 -9.08868764 11.84576048 -6.375 8.1875 C-1.11581873 1.11581873 -1.11581873 1.11581873 0 0 Z " fill="#111111" transform="translate(218,65)"/>
<path d="M0 0 C5.62482168 5.62482168 5.62482168 5.62482168 7.6484375 8.234375 C8.09348633 8.80422119 8.53853516 9.37406738 8.99707031 9.96118164 C9.45178711 10.5514917 9.90650391 11.14180176 10.375 11.75 C11.33560849 12.99374377 12.29654627 14.23723327 13.2578125 15.48046875 C13.72219727 16.08165527 14.18658203 16.6828418 14.66503906 17.30224609 C15.84729394 18.80579409 17.07304122 20.27491847 18.3046875 21.73828125 C18.94664063 22.50527344 19.58859375 23.27226563 20.25 24.0625 C20.81203125 24.71347656 21.3740625 25.36445312 21.953125 26.03515625 C23.40039982 28.75149667 22.83364356 30.08034177 22 33 C20.71240234 34.96948242 20.71240234 34.96948242 19.0859375 36.85546875 C18.49256592 37.55615479 17.89919434 38.25684082 17.2878418 38.97875977 C16.656604 39.70764404 16.02536621 40.43652832 15.375 41.1875 C10.64825454 46.76483202 6.16892364 52.30598713 2.13671875 58.41015625 C1.76160156 58.93480469 1.38648437 59.45945313 1 60 C0.67 60 0.34 60 0 60 C0 40.2 0 20.4 0 0 Z " fill="#FBFBFB" transform="translate(80,92)"/>
<path d="M0 0 C2.83887233 5.67774465 -1.83818447 16.35903022 -3.73193359 22.06445312 C-6.93040273 29.46884143 -13.00674183 34.80310627 -19 40 C-19.66 39.67 -20.32 39.34 -21 39 C-21.59355614 36.35139573 -21.74209269 33.70802678 -22 31 C-22.55171875 31.48082031 -23.1034375 31.96164063 -23.671875 32.45703125 C-27.16323066 34.77093307 -30.05286549 34.7083896 -34.16015625 34.63671875 C-39.17675994 33.51195066 -41.93841035 29.9300635 -45 26 C-42.5632545 23.37828702 -39.87624603 21.40918355 -36.9375 19.375 C-36.05964844 18.76398438 -35.18179688 18.15296875 -34.27734375 17.5234375 C-32 16 -32 16 -30 15 C-29.67 14.01 -29.34 13.02 -29 12 C-28.01 13.32 -27.02 14.64 -26 16 C-25.67 14.68 -25.34 13.36 -25 12 C-21.125 12.875 -21.125 12.875 -20 14 C-17.08224412 14.60786581 -15.79861144 14.81517996 -13 14 C-8.00422797 10.06215616 -3.78245644 5.09809346 0 0 Z " fill="#141414" transform="translate(177,211)"/>
<path d="M0 0 C0.33 0 0.66 0 1 0 C1 19.14 1 38.28 1 58 C-4.62268188 52.37731812 -4.62268188 52.37731812 -6.61328125 49.80078125 C-7.05309326 49.23568848 -7.49290527 48.6705957 -7.94604492 48.08837891 C-8.3969751 47.50233887 -8.84790527 46.91629883 -9.3125 46.3125 C-10.27306365 45.07653228 -11.23400435 43.84085751 -12.1953125 42.60546875 C-12.90155762 41.69547119 -12.90155762 41.69547119 -13.62207031 40.76708984 C-16.70639554 36.81167773 -19.85683035 32.90869807 -23 29 C-19.20944594 22.90215216 -14.57417194 17.51954928 -10 12 C-8.33021981 9.96086163 -6.66547358 7.91766218 -5 5.875 C-1.12307692 1.12307692 -1.12307692 1.12307692 0 0 Z " fill="#FBFBFB" transform="translate(209,93)"/>
<path d="M0 0 C1.79639296 1.09646058 3.58697154 2.20245148 5.375 3.3125 C6.37273437 3.92738281 7.37046875 4.54226562 8.3984375 5.17578125 C11 7 11 7 13 10 C10.41164516 13.95762105 8.02031788 17.37651911 3.3671875 18.8125 C-1.04421493 19.1074127 -3.85745649 18.83355376 -7.484375 16.1875 C-9.47395731 14.2120282 -11.27794461 12.21054674 -13 10 C-10.53511103 7.33857503 -7.79550348 5.36573616 -4.8125 3.3125 C-3.91144531 2.68988281 -3.01039063 2.06726563 -2.08203125 1.42578125 C-1.39496094 0.95527344 -0.70789063 0.48476562 0 0 Z " fill="#F6F6F6" transform="translate(145,227)"/>
<path d="M0 0 C2.46800047 1.15173355 4.04783565 2.04783565 6 4 C6.22705078 6.70556641 6.22705078 6.70556641 6.1953125 10.1015625 C6.18886719 11.31328125 6.18242187 12.525 6.17578125 13.7734375 C6.15902344 15.04445312 6.14226562 16.31546875 6.125 17.625 C6.11597656 18.90375 6.10695312 20.1825 6.09765625 21.5 C6.07402303 24.66685167 6.04107629 27.83333424 6 31 C4.68 31.33 3.36 31.66 2 32 C-0.42204038 28.36693942 -0.23302891 26.68180977 -0.1953125 22.36328125 C-0.18886719 21.06455078 -0.18242187 19.76582031 -0.17578125 18.42773438 C-0.1590706 17.05598693 -0.14214071 15.68424214 -0.125 14.3125 C-0.11496674 12.92904282 -0.10584149 11.54557873 -0.09765625 10.16210938 C-0.07404967 6.77456548 -0.04112037 3.38736928 0 0 Z " fill="#0D0D0D" transform="translate(160,171)"/>
<path d="M0 0 C0.33 0 0.66 0 1 0 C1 2.31 1 4.62 1 7 C10.24 7 19.48 7 29 7 C29 7.33 29 7.66 29 8 C19.43 8.33 9.86 8.66 0 9 C0.33 9.66 0.66 10.32 1 11 C-0.8125 11.6875 -0.8125 11.6875 -3 12 C-4.75 10.9375 -4.75 10.9375 -6 9 C-6.1875 5.8125 -6.1875 5.8125 -6 3 C-4.68 2.67 -3.36 2.34 -2 2 C-1.67 2.66 -1.34 3.32 -1 4 C-0.67 2.68 -0.34 1.36 0 0 Z " fill="#1B1B1B" transform="translate(130,192)"/>
<path d="M0 0 C2 0 2 0 3.62109375 1.57421875 C6.76103948 5.22735992 9.72665989 8.72077156 12 13 C7.545 13.495 7.545 13.495 3 14 C2.01 9.38 1.02 4.76 0 0 Z " fill="#141414" transform="translate(113,212)"/>
<path d="M0 0 C6.6 0 13.2 0 20 0 C20 0.33 20 0.66 20 1 C13.565 1.495 13.565 1.495 7 2 C7.33 2.99 7.66 3.98 8 5 C7.67 5.99 7.34 6.98 7 8 C5.83035398 6.8572081 4.66435444 5.71068285 3.5 4.5625 C2.8503125 3.92441406 2.200625 3.28632813 1.53125 2.62890625 C0 1 0 1 0 0 Z " fill="#090909" transform="translate(101,159)"/>
<path d="M0 0 C0.66 0.33 1.32 0.66 2 1 C1.67 1.99 1.34 2.98 1 4 C1.99 4.66 2.98 5.32 4 6 C1.36 8.64 -1.28 11.28 -4 14 C-4.33 13.34 -4.66 12.68 -5 12 C-4.26821134 9.92803369 -3.44100997 7.8891448 -2.5625 5.875 C-2.08941406 4.77929688 -1.61632812 3.68359375 -1.12890625 2.5546875 C-0.75636719 1.71164063 -0.38382813 0.86859375 0 0 Z " fill="#252525" transform="translate(189,216)"/>
<path d="M0 0 C1.32 1.32 2.64 2.64 4 4 C0.86501708 5.85776765 -1.37471432 6.20140476 -5 6 C-4.75 4.125 -4.75 4.125 -4 2 C-1.9375 0.75 -1.9375 0.75 0 0 Z " fill="#1C1C1C" transform="translate(121,220)"/>
<path d="M0 0 C1 2 1 2 0.0625 5.125 C-0.288125 6.07375 -0.63875 7.0225 -1 8 C-1.66 8 -2.32 8 -3 8 C-3.33 8.66 -3.66 9.32 -4 10 C-4.8125 8.375 -4.8125 8.375 -5 6 C-3.53181864 3.75390165 -1.84147142 1.97621323 0 0 Z " fill="#2D2D2D" transform="translate(177,211)"/>
<path d="M0 0 C4.29 0 8.58 0 13 0 C11 5 11 5 9 7 C9 5.35 9 3.7 9 2 C6.03 1.67 3.06 1.34 0 1 C0 0.67 0 0.34 0 0 Z " fill="#535353" transform="translate(232,294)"/>
<path d="M0 0 C1.5 1.3125 1.5 1.3125 3 3 C3 3.99 3 4.98 3 6 C1.02 6 -0.96 6 -3 6 C-1.125 1.125 -1.125 1.125 0 0 Z " fill="#1B1B1B" transform="translate(202,340)"/>
<path d="M0 0 C2.31 0 4.62 0 7 0 C7.33 0.99 7.66 1.98 8 3 C4.71023192 4.09658936 3.28696233 3.79953138 0 3 C0 2.01 0 1.02 0 0 Z " fill="#0C0C0C" transform="translate(117,225)"/>
<path d="M0 0 C-1.32 1.32 -2.64 2.64 -4 4 C-4.99 3.67 -5.98 3.34 -7 3 C-7 2.01 -7 1.02 -7 0 C-3.98968256 -0.93423645 -3.13349732 -1.04449911 0 0 Z " fill="#262626" transform="translate(190,160)"/>
<path d="M0 0 C1.65 0 3.3 0 5 0 C4.01 1.98 3.02 3.96 2 6 C1.34 5.67 0.68 5.34 0 5 C0 3.35 0 1.7 0 0 Z " fill="#0D0D0D" transform="translate(148,295)"/>
<path d="M0 0 C0.66 0 1.32 0 2 0 C3.625 2.5 3.625 2.5 5 5 C4.01 6.32 3.02 7.64 2 9 C1.34 6.03 0.68 3.06 0 0 Z " fill="#323232" transform="translate(113,212)"/>
</svg>
